<svg height="512" viewBox="0 0 50 60" width="512" xmlns="http://www.w3.org/2000/svg"><g id="Page-1" fill="none" fill-rule="evenodd"><g id="002---Recycle-HDPE" fill-rule="nonzero"><path id="Shape" d="m27 42c-.0032948 1.1032019-.8967981 1.9967052-2 2h-17.42c-2.12067579.0350362-4.10638744-1.0373997-5.24-2.83-1.10030983-1.8150554-1.11949533-4.0866185-.05-5.92l3.09-5.37-1.6-.93 5.88-2.51.76 6.35-1.58-.91-3.09 5.37c-.32872632.5702583-.32490518 1.2733484.01 1.84.32097779.5690965.92667434.917947 1.58.91h17.66c1.1011688.0081672 1.9918328.8988312 2 2z" fill="#90ac00"/><path id="Shape" d="m47.66 41.17c-1.1336126 1.7926003-3.1193242 2.8650362-5.24 2.83h-6.41v2l-5.01-4 5.01-4v2h6.65c.6533257.007947 1.2590222-.3409035 1.58-.91.3349052-.5666516.3387263-1.2697417.01-1.84l-8.83-15.32c-.3572656-.6198558-.3567035-1.3832251.0014746-2.0025541s1.0195563-1.0005268 1.735-1 1.3762598.3826983 1.7335254 1.0025541l8.82 15.32c1.0694953 1.8333815 1.0503098 4.1049446-.05 5.92z" fill="#549414"/><path id="Shape" d="m34.71 9.02-.76 6.35-5.88-2.51 1.6-.93-3.08-5.35c-.3271623-.56911306-.9335513-.91996718-1.59-.91996718s-1.2628377.35085412-1.59.91996718l-9.07 15.75c-.266532.460162-.704952.7955923-1.2188061.932495-.5138541.1369028-1.0610468.0640627-1.5211939-.202495-.9546113-.5529293-1.281234-1.7744087-.73-2.73l9.08-15.75c1.0399288-1.80646654 2.965588-2.91986584 5.05-2.91986584s4.0100712 1.1133993 5.05 2.91986584l3.08 5.35z" fill="#007900"/><path id="Shape" d="m28 32h-5.765c.264228-.5057679.6442169-.9419499 1.109-1.273.3011265-.2160891.6199202-.4064286.953-.569.2275009-.1096056.4612357-.2057708.7-.288.248-.092.5-.184.736-.3 2.017-.927 3.658-3.106 2.892-5.48-.4585101-1.3308245-1.5260649-2.3619515-2.872-2.774-1.3086306-.4499465-2.7536322-.24543-3.886.55-1.1648825.8454544-1.8580552 2.1946722-1.867 3.634 0 .5522847.4477153 1 1 1s1-.4477153 1-1c.0153468-.7989824.403926-1.5446844 1.05-2.015.6143836-.4153384 1.3900467-.5126678 2.088-.262.7355077.2138637 1.3247551.7659581 1.586 1.486.455 1.413-.841 2.6-1.824 3.049-.193.089-.394.162-.594.236-.7711725.267353-1.498167.6482078-2.157 1.13-.8555905.6064643-1.5139086 1.4511842-1.893 2.429-.1136685.3166837-.1898542.6455911-.227.98-.013.122-.022.245-.029.467 0 .5522847.4477153 1 1 1h7c.5522847 0 1-.4477153 1-1s-.4477153-1-1-1z" fill="#60a917"/><g fill="#000"><path id="Shape" d="m7.58 45h17.42c1.6568542 0 3-1.3431458 3-3-.0082058-1.6534434-1.3465566-2.9917942-3-3h-17.66c-.29486841.0096106-.57010751-.1473376-.712-.406-.16240846-.257148-.16665958-.5837114-.011-.845l2.591-4.5.713.411c.328039.188972.7346669.1764977 1.0505056-.0322268s.4867316-.5779094.4414944-.9537732l-.76-6.35c-.0377121-.3123261-.2202001-.5886981-.4926155-.74605-.27241549-.1573519-.60299665-.1773375-.8923845-.05395l-5.88 2.51c-.34831052.1483419-.5829868.4806612-.60627271.858528s.16881154.7364859.49627271.926472l.739.429-2.594 4.503c-1.25546701 2.1471718-1.23242995 4.809872.06 6.935 1.31728242 2.090262 3.62648566 3.3454202 6.097 3.314zm-4.423-9.251 3.09-5.371c.24881452-.430463.14358364-.9783452-.247-1.286l2.83-1.209.366 3.061c-.45852082-.1726181-.97458169.0123848-1.219.437l-3.097 5.376c-.50002057.8775436-.49597919 1.9547079.01061208 2.8284749.50659126.8737669 1.43938834 1.4124586 2.44938792 1.4145251h17.66c.2694422-.0008733.5272084.1099083.712.306.1865985.1823963.2906276.4330776.288.694 0 .5522847-.4477153 1-1 1h-17.42c-1.7679931.0333569-3.42646435-.8538116-4.38-2.343-.91423222-1.5040575-.93073919-3.3881551-.043-4.908z"/><path id="Shape" d="m34.15 20.94c.0000413.5231928.1380107 1.0371288.4 1.49l8.83 15.313c.1588888.2659943.1538561.5989298-.013.86-.142165.2552099-.415022.4095845-.707.4h-5.65v-1.003c-.000163-.3841679-.2203884-.7342803-.5666015-.9007781s-.7572003-.1199428-1.0573985.1197781l-5.01 4c-.2373126.1897684-.375469.4771426-.375469.781s.1381564.5912316.375469.781l5.01 4c.3001982.2397209.7111854.2862759 1.0573985.1197781s.5664385-.5166102.5666015-.9007781v-1h5.41c2.4715766.0324699 4.7821574-1.2228194 6.1-3.314 1.2908378-2.1246923 1.313105-4.7860058.058-6.932l-8.823-15.325c-.6838484-1.1734121-2.0693629-1.7427801-3.3806892-1.3892718-1.3113262.3535083-2.2229199 1.5421323-2.2243108 2.9002718zm2.512-.875c.2281167-.1331053.5000973-.1691292.755-.1.2548878.0677423.4726946.2334336.606.461l8.82 15.32c.8883516 1.5194788.8726125 3.4035743-.041 4.908-.9533276 1.4908009-2.6127579 2.3792134-4.382 2.346h-6.41c-.5239168-.0015151-.9601843.4015961-1 .924l-2.41-1.924 2.41-1.924c.0398157.5224039.4760832.9255151 1 .924h6.65c1.0111798-.0026814 1.9446102-.5430005 2.4505513-1.4185092.505941-.8755087.5080164-1.9540414.0054487-2.8314908l-8.831-15.321c-.0860337-.1487914-.1325114-.317144-.135-.489-.0025092-.3634366.1939299-.699148.512-.875z"/><path id="Shape" d="m11.109 23.931c.4537059.2608524.9676537.3987324 1.491.4 1.0722586-.0069692 2.0620928-.576494 2.607-1.5l9.069-15.75c.148241-.25979164.4243895-.42016014.7235-.42016014s.575259.1603685.7235.42016014l2.583 4.487-.739.432c-.3274612.1899861-.5195586.5486052-.4962727.926472s.2579622.7101861.6062727.858528l5.881 2.51c.2893878.1233875.619969.1034019.8923845-.05395.2724154-.1573519.4549034-.4337239.4926155-.74605l.76-6.35c.0452372-.37586379-.1256557-.74504873-.4414944-.95377323-.3158387-.20872449-.7224666-.22119878-1.0505056-.03222677l-.713.411-2.581-4.487c-1.2180296-2.11686932-3.4742199-3.42169335-5.9165-3.42169335s-4.6984704 1.30482403-5.9165 3.42169335l-9.084 15.75c-.81947025 1.4386326-.3241448 3.2689696 1.109 4.098zm.627-3.1 9.081-15.753c.8615525-1.49611269 2.4565511-2.41817456 4.183-2.41817456s3.3214475.92206187 4.183 2.41817456l3.08 5.35c.2444183.4246152.7604792.6096181 1.219.437l-.366 3.061-2.83-1.209c.3925026-.3066272.4995197-.8553561.251-1.287l-3.081-5.35c-.5056708-.87897754-1.4424465-1.42078956-2.4565-1.42078956s-1.9508292.54181202-2.4565 1.42078956l-9.063 15.739c-.2811016.4795206-.892691.6483725-1.38.381-.2304216-.1329593-.3983668-.3522524-.4666793-.6093626s-.031361-.530843.1026793-.7606374z"/><path id="Shape" d="m28 59v-4h2.5c1.9329966 0 3.5-1.5670034 3.5-3.5s-1.5670034-3.5-3.5-3.5h-3.5c-.5522847 0-1 .4477153-1 1v10c0 .5522847.4477153 1 1 1s1-.4477153 1-1zm4-7.5c0 .8284271-.6715729 1.5-1.5 1.5h-2.5v-3h2.5c.8284271 0 1.5.6715729 1.5 1.5z"/><path id="Shape" d="m13 60c.5522847 0 1-.4477153 1-1v-10c0-.5522847-.4477153-1-1-1s-1 .4477153-1 1v4h-4v-4c0-.5522847-.44771525-1-1-1s-1 .4477153-1 1v10c0 .5522847.44771525 1 1 1s1-.4477153 1-1v-4h4v4c0 .5522847.4477153 1 1 1z"/><path id="Shape" d="m24 56v-4c0-2.209139-1.790861-4-4-4h-3c-.5522847 0-1 .4477153-1 1v10c0 .5522847.4477153 1 1 1h3c2.209139 0 4-1.790861 4-4zm-2 0c0 1.1045695-.8954305 2-2 2h-2v-8h2c1.1045695 0 2 .8954305 2 2z"/><path id="Shape" d="m43 50c.5522847 0 1-.4477153 1-1s-.4477153-1-1-1h-6c-.5522847 0-1 .4477153-1 1v10c0 .5522847.4477153 1 1 1h6c.5522847 0 1-.4477153 1-1s-.4477153-1-1-1h-5v-3h5c.5522847 0 1-.4477153 1-1s-.4477153-1-1-1h-5v-3z"/></g></g></g></svg>