<svg height="512" viewBox="0 0 50 60" width="512" xmlns="http://www.w3.org/2000/svg"><g id="Page-1" fill="none" fill-rule="evenodd"><g id="005---Recycle-PP" fill-rule="nonzero"><path id="Shape" d="m27 42c-.0032948 1.1032019-.8967981 1.9967052-2 2h-17.42c-2.12067579.0350362-4.10638744-1.0373997-5.24-2.83-1.10030983-1.8150554-1.11949533-4.0866185-.05-5.92l3.09-5.37-1.6-.93 5.88-2.51.76 6.35-1.58-.91-3.09 5.37c-.32872632.5702583-.32490518 1.2733484.01 1.84.32097779.5690965.92667434.917947 1.58.91h17.66c1.1011688.0081672 1.9918328.8988312 2 2z" fill="#90ac00"/><path id="Shape" d="m47.66 41.17c-1.1336126 1.7926003-3.1193242 2.8650362-5.24 2.83h-6.41v2l-5.01-4 5.01-4v2h6.65c.6533257.007947 1.2590222-.3409035 1.58-.91.3349052-.5666516.3387263-1.2697417.01-1.84l-8.83-15.32c-.3572656-.6198558-.3567035-1.3832251.0014746-2.0025541s1.0195563-1.0005268 1.735-1 1.3762598.3826983 1.7335254 1.0025541l8.82 15.32c1.0694953 1.8333815 1.0503098 4.1049446-.05 5.92z" fill="#549414"/><path id="Shape" d="m34.71 9.02-.76 6.35-5.88-2.51 1.6-.93-3.08-5.35c-.3271623-.56911306-.9335513-.91996718-1.59-.91996718s-1.2628377.35085412-1.59.91996718l-9.07 15.75c-.266532.460162-.704952.7955923-1.2188061.932495-.5138541.1369028-1.0610468.0640627-1.5211939-.202495-.9546113-.5529293-1.281234-1.7744087-.73-2.73l9.08-15.75c1.0399288-1.80646654 2.965588-2.91986584 5.05-2.91986584s4.0100712 1.1133993 5.05 2.91986584l3.08 5.35z" fill="#007900"/><path id="Shape" d="m25.542 25.115c-1.2215472-.2906839-2.5090708-.0489552-3.542.665v-2.78h6c.5522847 0 1-.4477153 1-1s-.4477153-1-1-1h-6c-1.1045695 0-2 .8954305-2 2v2.78c-.0093507.7249601.386939 1.3944467 1.027 1.735.667264.3509474 1.4730529.3087394 2.1-.11.5810462-.3789214 1.2924729-.5018929 1.967-.34 1.2428783.2887166 2.0688863 1.4670879 1.9164049 2.7339159s-1.234515 2.2155383-2.5104049 2.2010841c-1.2357485.0077341-2.2843032-.9049842-2.447-2.13-.0676549-.5481426-.5668574-.9376548-1.115-.87-.5481426.0676549-.9376549.5668574-.87 1.115.2407001 1.7806523 1.5215764 3.2454364 3.2542214 3.7214618 1.7326451.4760253 3.5821056-.128733 4.6987786-1.5364618.861423-1.082211 1.1797778-2.4993321.864-3.846-.386986-1.6591169-1.683421-2.9540007-3.343-3.339z" fill="#60a917"/><g fill="#000"><path id="Shape" d="m7.58 45h17.42c1.6568542 0 3-1.3431458 3-3-.0082058-1.6534434-1.3465566-2.9917942-3-3h-17.66c-.29486841.0096106-.57010751-.1473376-.712-.406-.16240846-.257148-.16665958-.5837114-.011-.845l2.591-4.5.713.411c.328039.188972.7346669.1764977 1.0505056-.0322268s.4867316-.5779094.4414944-.9537732l-.76-6.35c-.0377121-.3123261-.2202001-.5886981-.4926155-.74605-.27241549-.1573519-.60299665-.1773375-.8923845-.05395l-5.88 2.51c-.34831052.1483419-.5829868.4806612-.60627271.858528s.16881154.7364859.49627271.926472l.739.429-2.594 4.503c-1.25546701 2.1471718-1.23242995 4.809872.06 6.935 1.31728242 2.090262 3.62648566 3.3454202 6.097 3.314zm-4.423-9.251 3.09-5.371c.24881452-.430463.14358364-.9783452-.247-1.286l2.83-1.209.366 3.061c-.45852082-.1726181-.97458169.0123848-1.219.437l-3.097 5.376c-.50002057.8775436-.49597919 1.9547079.01061208 2.8284749.50659126.8737669 1.43938834 1.4124586 2.44938792 1.4145251h17.66c.2694422-.0008733.5272084.1099083.712.306.1865985.1823963.2906276.4330776.288.694 0 .5522847-.4477153 1-1 1h-17.42c-1.7679931.0333569-3.42646435-.8538116-4.38-2.343-.91423222-1.5040575-.93073919-3.3881551-.043-4.908z"/><path id="Shape" d="m34.15 20.94c.0000413.5231928.1380107 1.0371288.4 1.49l8.83 15.313c.1590577.2660568.1536334.5992614-.014.86-.141151.255723-.4140917.4103636-.706.4h-5.65v-1.003c-.000163-.3841679-.2203884-.7342803-.5666015-.9007781s-.7572003-.1199428-1.0573985.1197781l-5.01 4c-.2373126.1897684-.375469.4771426-.375469.781s.1381564.5912316.375469.781l5.01 4c.3001982.2397209.7111854.2862759 1.0573985.1197781s.5664385-.5166102.5666015-.9007781v-1h5.41c2.4715766.0324699 4.7821574-1.2228194 6.1-3.314 1.290528-2.1248764 1.3124112-4.786189.057-6.932l-8.822-15.325c-.6838484-1.1734121-2.0693629-1.7427801-3.3806892-1.3892718-1.3113262.3535083-2.2229199 1.5421323-2.2243108 2.9002718zm2.512-.875c.4766392-.2730753 1.0843141-.1105524 1.361.364l8.82 15.32c.8882603 1.5190447.8729059 3.4026377-.04 4.907-.953858 1.4904919-2.613751 2.3781919-4.383 2.344h-6.41c-.5239168-.0015151-.9601843.4015961-1 .924l-2.41-1.924 2.41-1.924c.0398157.5224039.4760832.9255151 1 .924h6.65c1.0128614.0105829 1.9510839-.531348 2.448-1.414.5130292-.8749575.5160848-1.958162.008-2.836l-8.831-15.321c-.0860337-.1487914-.1325114-.317144-.135-.489-.0025092-.3634366.1939299-.699148.512-.875z"/><path id="Shape" d="m11.109 23.931c.4537059.2608524.9676537.3987324 1.491.4 1.0722586-.0069692 2.0620928-.576494 2.607-1.5l9.069-15.75c.148241-.25979164.4243895-.42016014.7235-.42016014s.575259.1603685.7235.42016014l2.583 4.487-.739.432c-.3274612.1899861-.5195586.5486052-.4962727.926472s.2579622.7101861.6062727.858528l5.881 2.51c.2893878.1233875.619969.1034019.8923845-.05395.2724154-.1573519.4549034-.4337239.4926155-.74605l.76-6.35c.0452372-.37586379-.1256557-.74504873-.4414944-.95377323-.3158387-.20872449-.7224666-.22119878-1.0505056-.03222677l-.713.411-2.581-4.487c-1.2180296-2.11686932-3.4742199-3.42169335-5.9165-3.42169335s-4.6984704 1.30482403-5.9165 3.42169335l-9.084 15.75c-.81947025 1.4386326-.3241448 3.2689696 1.109 4.098zm.627-3.1 9.081-15.753c.8615525-1.49611269 2.4565511-2.41817456 4.183-2.41817456s3.3214475.92206187 4.183 2.41817456l3.08 5.35c.2444183.4246152.7604792.6096181 1.219.437l-.366 3.061-2.83-1.209c.3925026-.3066272.4995197-.8553561.251-1.287l-3.081-5.35c-.5056708-.87897754-1.4424465-1.42078956-2.4565-1.42078956s-1.9508292.54181202-2.4565 1.42078956l-9.063 15.739c-.2811016.4795206-.892691.6483725-1.38.381-.2304216-.1329593-.3983668-.3522524-.4666793-.6093626s-.031361-.530843.1026793-.7606374z"/><path id="Shape" d="m35 51.5c0-1.9329966-1.5670034-3.5-3.5-3.5h-3.5c-.5522847 0-1 .4477153-1 1v10c0 .5522847.4477153 1 1 1s1-.4477153 1-1v-4h2.5c1.9329966 0 3.5-1.5670034 3.5-3.5zm-6-1.5h2.5c.8284271 0 1.5.6715729 1.5 1.5s-.6715729 1.5-1.5 1.5h-2.5z"/><path id="Shape" d="m18 48c-.5522847 0-1 .4477153-1 1v10c0 .5522847.4477153 1 1 1s1-.4477153 1-1v-4h2.5c1.9329966 0 3.5-1.5670034 3.5-3.5s-1.5670034-3.5-3.5-3.5zm5 3.5c0 .8284271-.6715729 1.5-1.5 1.5h-2.5v-3h2.5c.8284271 0 1.5.6715729 1.5 1.5z"/></g></g></g></svg>