<svg height="512" viewBox="0 0 50 60" width="512" xmlns="http://www.w3.org/2000/svg"><g id="Page-1" fill="none" fill-rule="evenodd"><g id="007---Recycle-Other" fill-rule="nonzero"><path id="Shape" d="m27 42c-.0032948 1.1032019-.8967981 1.9967052-2 2h-17.42c-2.12067579.0350362-4.10638744-1.0373997-5.24-2.83-1.10030983-1.8150554-1.11949533-4.0866185-.05-5.92l3.09-5.37-1.6-.93 5.88-2.51.76 6.35-1.58-.91-3.09 5.37c-.32872632.5702583-.32490518 1.2733484.01 1.84.32097779.5690965.92667434.917947 1.58.91h17.66c1.1011688.0081672 1.9918328.8988312 2 2z" fill="#90ac00"/><path id="Shape" d="m47.66 41.17c-1.1336126 1.7926003-3.1193242 2.8650362-5.24 2.83h-6.41v2l-5.01-4 5.01-4v2h6.65c.6533257.007947 1.2590222-.3409035 1.58-.91.3349052-.5666516.3387263-1.2697417.01-1.84l-8.83-15.32c-.3572656-.6198558-.3567035-1.3832251.0014746-2.0025541s1.0195563-1.0005268 1.735-1 1.3762598.3826983 1.7335254 1.0025541l8.82 15.32c1.0694953 1.8333815 1.0503098 4.1049446-.05 5.92z" fill="#549414"/><path id="Shape" d="m34.71 9.02-.76 6.35-5.88-2.51 1.6-.93-3.08-5.35c-.3271623-.56911306-.9335513-.91996718-1.59-.91996718s-1.2628377.35085412-1.59.91996718l-9.07 15.75c-.266532.460162-.704952.7955923-1.2188061.932495-.5138541.1369028-1.0610468.0640627-1.5211939-.202495-.9546113-.5529293-1.281234-1.7744087-.73-2.73l9.08-15.75c1.0399288-1.80646654 2.965588-2.91986584 5.05-2.91986584s4.0100712 1.1133993 5.05 2.91986584l3.08 5.35z" fill="#007900"/><path id="Shape" d="m28.909 21.585c-.1624184-.3560767-.5176303-.5846785-.909-.585h-7c-.5522847 0-1 .4477153-1 1s.4477153 1 1 1h5c-2.0256045 2.9552544-3.386833 6.314316-3.99 9.846-.0850112.5456475.2883644 1.0569124.834 1.142.0516165.0079843.1037696.0119961.156.012.4924203-.0005274.9111675-.3594535.987-.846.6848171-3.8437312 2.3235629-7.4540608 4.766-10.5.2565634-.2951713.3175111-.7128188.156-1.069z" fill="#60a917"/><g fill="#000"><path id="Shape" d="m7.58 45h17.42c1.6568542 0 3-1.3431458 3-3-.0071207-1.6538958-1.3461042-2.9928793-3-3h-17.66c-.29525916.0101195-.57089601-.1474426-.712-.407-.16223036-.2568383-.16648156-.5830209-.011-.844l2.591-4.5.713.411c.328039.188972.7346669.1764977 1.0505056-.0322268s.4867316-.5779094.4414944-.9537732l-.76-6.35c-.0377121-.3123261-.2202001-.5886981-.4926155-.74605-.27241549-.1573519-.60299665-.1773375-.8923845-.05395l-5.88 2.51c-.34842635.1481331-.58331693.480338-.60681526.8582165-.02349832.3778786.16842555.7366248.49581526.9267835l.74.429-2.594 4.503c-1.25502793 2.1472887-1.23199296 4.8097475.06 6.935 1.31728242 2.090262 3.62648566 3.3454202 6.097 3.314zm-4.423-9.251 3.09-5.371c.24881452-.430463.14358364-.9783452-.247-1.286l2.831-1.209.366 3.061c-.45852082-.1726181-.97458169.0123848-1.219.437l-3.098 5.376c-.50354633.8731416-.50125725 1.9490091.006 2.82.49672115.8869193 1.43750186 1.4324494 2.454 1.423h17.66c.2697406-.0009102.5278302.1098548.713.306.1854514.1830903.2889672.4334037.287.694 0 .5522847-.4477153 1-1 1h-17.42c-1.76813423.0339435-3.426874-.8533686-4.38-2.343-.91423222-1.5040575-.93073919-3.3881551-.043-4.908z"/><path id="Shape" d="m34.15 20.94c.0000413.5231928.1380107 1.0371288.4 1.49l8.83 15.313c.1590577.2660568.1536334.5992614-.014.86-.141151.255723-.4140917.4103636-.706.4h-5.65v-1.003c-.000163-.3841679-.2203884-.7342803-.5666015-.9007781s-.7572003-.1199428-1.0573985.1197781l-5.01 4c-.2373126.1897684-.375469.4771426-.375469.781s.1381564.5912316.375469.781l5.01 4c.3001982.2397209.7111854.2862759 1.0573985.1197781s.5664385-.5166102.5666015-.9007781v-1h5.41c2.4715766.0324699 4.7821574-1.2228194 6.1-3.314 1.290528-2.1248764 1.3124112-4.786189.057-6.932l-8.822-15.325c-.6838484-1.1734121-2.0693629-1.7427801-3.3806892-1.3892718-1.3113262.3535083-2.2229199 1.5421323-2.2243108 2.9002718zm2.511-.875c.4772397-.2708466 1.083508-.1088189 1.362.364l8.82 15.32c.8879906 1.5183012.873021 3.4010108-.039 4.905-.9534284 1.4917111-2.6139573 2.3803062-4.384 2.346h-6.41c-.5239168-.0015151-.9601843.4015961-1 .924l-2.41-1.924 2.41-1.924c.0398157.5224039.4760832.9255151 1 .924h6.65c1.0128614.0105829 1.9510839-.531348 2.448-1.414.5130292-.8749575.5160848-1.958162.008-2.836l-8.831-15.321c-.1344638-.2299572-.1703721-.5044682-.099581-.7612745.0707912-.2568063.2422828-.4741455.475581-.6027255z"/><path id="Shape" d="m11.109 23.932c.4538657.2604656.9677089.3983175 1.491.4 1.0720627-.0067227 2.0617107-.5763589 2.606-1.5l9.07-15.752c.1489293-.25919959.4250612-.41900841.724-.41900841s.5750707.15980882.724.41900841l2.583 4.487-.74.429c-.3273897.1901587-.5193136.5489049-.4958153.9267835.0234984.3778785.258389.7100834.6068153.8582165l5.88 2.51c.2893878.1233875.619969.1034019.8923845-.05395.2724154-.1573519.4549034-.4337239.4926155-.74605l.76-6.35c.0452372-.37586379-.1256557-.74504873-.4414944-.95377323-.3158387-.20872449-.7224666-.22119878-1.0505056-.03222677l-.714.411-2.58-4.481c-1.2180296-2.11686932-3.4742199-3.42169335-5.9165-3.42169335s-4.6984704 1.30482403-5.9165 3.42169335l-9.084 15.748c-.81897517 1.4390074-.32380419 3.2692201 1.109 4.099zm.627-3.1 9.081-15.754c.8618277-1.49606411 2.4569558-2.41803906 4.1835-2.41803906s3.3216723.92197495 4.1835 2.41803906l3.08 5.35c.2443365.4241232.7597651.6090512 1.218.437l-.366 3.061-2.831-1.209c.3925026-.3066272.4995197-.8553561.251-1.287l-3.08-5.35c-.5053952-.87902656-1.4420414-1.42092599-2.456-1.42092599s-1.9506048.54189943-2.456 1.42092599l-9.064 15.739c-.2817904.4786228-.8925603.6472484-1.38.381-.4771054-.279115-.6396483-.8908833-.364-1.37z"/><path id="Shape" d="m48 51.5c0-1.9329966-1.5670034-3.5-3.5-3.5h-3.5c-.5522847 0-1 .4477153-1 1v10c0 .5522847.4477153 1 1 1s1-.4477153 1-1v-4h1.434l2.709 4.515c.1806127.3132279.516242.5045637.8777878.5004101.3615459-.0041537.6926908-.2031497.8660598-.5204443.1733689-.3172946.1619565-.7034632-.0298476-1.0099658l-2.215-3.692c1.4057838-.4852278 2.3514305-1.8058447 2.358-3.293zm-3.5 1.5h-2.5v-3h2.5c.8284271 0 1.5.6715729 1.5 1.5s-.6715729 1.5-1.5 1.5z"/><path id="Shape" d="m37 50c.5522847 0 1-.4477153 1-1s-.4477153-1-1-1h-6c-.5522847 0-1 .4477153-1 1v10c0 .5522847.4477153 1 1 1h6c.5522847 0 1-.4477153 1-1s-.4477153-1-1-1h-5v-3h5c.5522847 0 1-.4477153 1-1s-.4477153-1-1-1h-5v-3z"/><path id="Shape" d="m2 52v4c0 2.209139 1.790861 4 4 4s4-1.790861 4-4v-4c0-2.209139-1.790861-4-4-4s-4 1.790861-4 4zm6 0v4c0 1.1045695-.8954305 2-2 2s-2-.8954305-2-2v-4c0-1.1045695.8954305-2 2-2s2 .8954305 2 2z"/><path id="Shape" d="m15 60c.5522847 0 1-.4477153 1-1v-9h2c.5522847 0 1-.4477153 1-1s-.4477153-1-1-1h-6c-.5522847 0-1 .4477153-1 1s.4477153 1 1 1h2v9c0 .5522847.4477153 1 1 1z"/><path id="Shape" d="m27 60c.5522847 0 1-.4477153 1-1v-10c0-.5522847-.4477153-1-1-1s-1 .4477153-1 1v4h-4v-4c0-.5522847-.4477153-1-1-1s-1 .4477153-1 1v10c0 .5522847.4477153 1 1 1s1-.4477153 1-1v-4h4v4c0 .5522847.4477153 1 1 1z"/></g></g></g></svg>