<svg height="512" viewBox="0 0 60 60" width="512" xmlns="http://www.w3.org/2000/svg"><g id="Page-1" fill="none" fill-rule="evenodd"><g id="017---Recycling-Box" fill-rule="nonzero"><path id="Shape" d="m56 29-4.3 25.82c-.40643 2.4118975-2.4940989 4.1783866-4.94 4.18h-33.52c-2.4459011-.0016134-4.53357003-1.7681025-4.94-4.18l-4.3-25.82z" fill="#008a00"/><path id="Shape" d="m53 29-4.3 25.82c-.40643 2.4118975-2.4940989 4.1783866-4.94 4.18h3c2.4459011-.0016134 4.53357-1.7681025 4.94-4.18l4.3-25.82z" fill="#007900"/><rect id="Rectangle-path" fill="#60a917" height="7" rx="2" width="58" x="1" y="22"/><path id="Shape" d="m57 22h-3c1.1032019.0032948 1.9967052.8967981 2 2v3c-.0032948 1.1032019-.8967981 1.9967052-2 2h3c1.1032019-.0032948 1.9967052-.8967981 2-2v-3c-.0032948-1.1032019-.8967981-1.9967052-2-2z" fill="#549414"/><path id="Shape" d="m27.06 13.98-6.31 8.02h-10.75003191l.00003191-3.69c-.00861386-3.316187 1.7271058-6.3926268 4.57-8.1.8942612-.53712383 1.4380744-1.50686052 1.43-2.55v-1.66h6v1.62c-.0024141 1.06248686.5616136 2.0457243 1.48 2.58 1.5374154.8826585 2.7821377 2.1969183 3.58 3.78z" fill="#00bcd4"/><path id="Shape" d="m23.48 10.2c-.9183864-.5342757-1.4824141-1.51751314-1.48-2.58v-1.62h-3v1.62c-.0024141 1.06248686.5616136 2.0457243 1.48 2.58 1.5374154.8826585 2.7821377 2.1969183 3.58 3.78l-6.31 8.02h3l6.31-8.02c-.7978623-1.5830817-2.0425846-2.8973415-3.58-3.78z" fill="#00838f"/><path id="Shape" d="m23 3v2c0 .55228475-.4477153 1-1 1h-6c-.5522847 0-1-.44771525-1-1v-2c0-1.1045695.8954305-2 2-2h4c1.1045695 0 2 .8954305 2 2z" fill="#f44335"/><path id="Shape" d="m21 1h-3c1.1045695 0 2 .8954305 2 2v2c0 .55228475-.4477153 1-1 1h3c.5522847 0 1-.44771525 1-1v-2c0-1.1045695-.8954305-2-2-2z" fill="#c81e1e"/><path id="Shape" d="m51.46 20.73.23 1.27h-30.94l6.31-8.02.46-.58c1.2403765-1.5658829 3.0864421-2.5325235 5.08-2.66l5.74-.34c1.9474916-.1140522 3.7593706-1.03448672 5-2.54l9.43 7.42c-1.1714564 1.5573847-1.6456913 3.5303468-1.31 5.45z" fill="#ef314c"/><path id="Shape" d="m52.77 15.28-9.43-7.42c-.4015699.48445994-.8671713.91204614-1.384 1.271l7.814 6.149c-1.1714564 1.5573847-1.6456913 3.5303468-1.31 5.45l.23 1.27h3l-.23-1.27c-.3356913-1.9196532.1385436-3.8926153 1.31-5.45z" fill="#bb193b"/><path id="Shape" d="m57.26 11.19-3.09 3.93c-.3434539.4289082-.9686301.5003569-1.4.16l-9.43-7.42c-.432823-.34436886-.5085704-.97262626-.17-1.41l3.1-3.92c.6534848-.83508079 1.6128462-1.37527733 2.6657422-1.50102427s2.1124911.17332646 2.9442578.83102427l4.72 3.71c.8330651.65753962 1.3706687 1.61919367 1.4944545 2.67324911.1237859 1.05405544-.1763943 2.11409689-.8344545 2.94675089z" fill="#00bcd4"/><path id="Shape" d="m56.6 5.57-4.72-3.71c-1.1274528-.8875793-2.6463301-1.09713236-3.972-.548.3482348.13588666.6754811.32038354.972.548l4.72 3.71c.8330651.65753962 1.3706687 1.61919367 1.4944545 2.67324911.1237859 1.05405544-.1763943 2.11409689-.8344545 2.94675089l-2.56 3.251 1.066.839c.4313699.3403569 1.0565461.2689082 1.4-.16l3.09-3.93c.6585054-.8321565.9593517-1.89187743.8363191-2.94590629-.1230325-1.05402886-.6598594-2.01597157-1.4923191-2.67409371z" fill="#00838f"/><path id="Shape" d="m33.461 41.68c-.3576137.0003484-.6881932-.1902972-.867-.5l-1.728-3c-.1786394-.3093763-.5087526-.499956-.866-.499956s-.6873606.1905797-.866.499956l-1.728 3c-.2780058.4742136-.886647.6351286-1.3626943.3602745-.4760473-.274854-.640996-.8824145-.3693057-1.3602745l1.727-3c.5353928-.9300833 1.526827-1.503337 2.6-1.503337s2.0646072.5732537 2.6 1.503337l1.727 3c.1785415.3092425.1786393.6902222.0002566.9995563s-.5081742.5000777-.8652566.5004437z" fill="#f5f5f5"/><path id="Shape" d="m36.535 53h-3.075c-.5522847 0-1-.4477153-1-1s.4477153-1 1-1h3.075c.3570824-.000366.6868739-.1911096.8652566-.5004437s.1782849-.6903138-.0002566-.9995563l-1.536-2.66c-.2761424-.4785547-.1120547-1.0903576.3665-1.3665s1.0903576-.1120547 1.3665.3665l1.536 2.66c.5360705.9285009.5358873 2.0725043-.0004806 3.0008334-.536368.9283291-1.527379 1.4998543-2.5995194 1.4991666z" fill="#f5f5f5"/><path id="Shape" d="m26.54 53h-3.075c-1.0721404.0006877-2.0631514-.5708375-2.5995194-1.4991666-.5363679-.9283291-.5365511-2.0723325-.0004806-3.0008334l1.535-2.66c.2761424-.4785547.8879453-.6426423 1.3665-.3665.4785547.2761424.6426424.8879453.3665 1.3665l-1.533 2.66c-.1785415.3092425-.1786393.6902222-.0002566.9995563s.5081742.5000777.8652566.5004437h3.075c.5522847 0 1 .4477153 1 1s-.4477153 1-1 1z" fill="#f5f5f5"/><g fill="#000"><path id="Shape" d="m57 21h-4.475l-.08-.44c-.2439283-1.4110481.0177622-2.8629172.739-4.1.6854243.1565153 1.3951464-.1354641 1.772-.729l1.854-2.355 1.234-1.567c.8206321-1.0417501 1.1937942-2.36684016 1.0373869-3.68373692s-.8295705-2.51771519-1.8713869-3.33826308l-4.71-3.715c-1.0418744-.82052105-2.3670446-1.19351685-3.6839481-1.03692124-1.3169035.15659562-2.5176498.82995319-3.3380519 1.87192124l-3.092 3.928c-.430158.53879451-.5466494 1.26354534-.307 1.91-1.0324193.9810843-2.3774933 1.56705363-3.799 1.655l-5.746.34c-2.0351449.1350273-3.943879 1.0349152-5.343 2.519-.8426353-1.2000508-1.9392889-2.19974-3.212-2.928-.6079823-.35506111-.9809718-1.00693535-.979-1.711v-.9c.6161346-.35405485.9971426-1.00938866 1-1.72v-2c0-1.65685425-1.3431458-3-3-3h-4c-1.6568542 0-3 1.34314575-3 3v2c.002145.71132678.3832487 1.36758742 1 1.722v.938c.0070683.68824662-.3484821 1.32945287-.936 1.688-3.1517127 1.8839173-5.07642814 5.2901772-5.064 8.962v2.69h-6c-1.65685425 0-3 1.3431458-3 3v3c0 1.6568542 1.34314575 3 3 3h.153l4.164 24.986c.47466681 2.8973032 2.9820819 5.0216998 5.918 5.014h33.53c2.9359181.0076998 5.4433332-2.1166968 5.918-5.014l4.164-24.986h.153c1.6568542 0 3-1.3431458 3-3v-3c0-1.6568542-1.3431458-3-3-3zm-11.8-15.5 1.571 1.237c.4348957.28840454 1.0184446.19391425 1.340105-.21699452.3216605-.41090877.2732798-1.00007518-.111105-1.35300548l-1.567-1.237.619-.786c1.025261-1.30078945 2.9106949-1.5246064 4.212-.5l4.714 3.712c1.3014316 1.02533201 1.5252864 2.91153246.5 4.213l-.618.786-4.714-3.713c-.2806321-.22114741-.6579276-.27578059-.989763-.14331974-.3318353.13246084-.5677968.43189176-.619.78550001s.0901309.70767233.370763.92881973l4.715 3.713-1.237 1.574c-.005 0-.008-.01-.013-.014l-.014-.007-9.4-7.4zm-12.541 6.238 5.741-.338c1.8832879-.1183268 3.6655642-.8928757 5.037-2.189l7.994 6.3c-.9368381 1.6340928-1.274891 3.5435967-.956 5.4l.016.091h-22.431l3.555-4.516c.3415881-.4340958.2665958-1.0629119-.1675-1.4045s-1.0629119-.2665958-1.4045.1675l-4.529 5.751h-2.7l5.486-6.98c1.0653455-1.3423436 2.6488537-2.1713332 4.359-2.282zm-16.659-8.738c0-.55228475.4477153-1 1-1h4c.5522847 0 1 .44771525 1 1v2h-6zm-5 15.31c-.0146153-2.9636257 1.5355783-5.7150481 4.078-7.238 1.1972522-.7190885 1.9274764-2.0154073 1.922-3.412v-.66h4v.62c-.0010564 1.42095108.7549684 2.734849 1.984 3.448 1.1814648.6838115 2.1681381 1.6587797 2.866 2.832l-5.586 7.1h-9.2641024zm47 8.69c0 .5522847-.4477153 1-1 1h-35c-.5522847 0-1 .4477153-1 1s.4477153 1 1 1h32.82l-4.11 24.658c-.3161999 1.9314383-1.9878579 3.3475805-3.945 3.342h-33.53c-1.9574638.0055011-3.62923899-1.4111641-3.945-3.343l-4.11-24.657h9.82c.5522847 0 1-.4477153 1-1s-.4477153-1-1-1h-12c-.55228475 0-1-.4477153-1-1v-3c0-.5522847.44771525-1 1-1h54c.5522847 0 1 .4477153 1 1z"/><path id="Shape" d="m26.04 41.546c.4782803.2761293 1.0898496.1122682 1.366-.366l1.728-3c.1786394-.3093763.5087526-.499956.866-.499956s.6873606.1905797.866.499956l1.728 3c.2780058.4742136.886647.6351286 1.3626943.3602745.4760473-.274854.640996-.8824145.3693057-1.3602745l-1.727-3c-.5353928-.9300833-1.526827-1.503337-2.6-1.503337s-2.0646072.5732537-2.6 1.503337l-1.727 3c-.1324364.2299213-.1680666.5030507-.0990459.7592525s.2370332.4744698.4670459.6067475z"/><path id="Shape" d="m37.4 49.5c.1785415.3092425.1786393.6902222.0002566.9995563s-.5081742.5000777-.8652566.5004437h-3.075c-.5522847 0-1 .4477153-1 1s.4477153 1 1 1h3.075c1.0721404.0006877 2.0631514-.5708375 2.5995194-1.4991666.5363679-.9283291.5365511-2.0723325.0004806-3.0008334l-1.535-2.66c-.2761424-.4785547-.8879453-.6426424-1.3665-.3665s-.6426424.8879453-.3665 1.3665z"/><path id="Shape" d="m20.867 51.5c.5314848.933543 1.5257901 1.5071806 2.6 1.5h3.073c.5522847 0 1-.4477153 1-1s-.4477153-1-1-1h-3.075c-.3570824-.000366-.6868739-.1911096-.8652566-.5004437s-.1782849-.6903138.0002566-.9995563l1.536-2.66c.2761424-.4785547.1120547-1.0903576-.3665-1.3665-.4785547-.2761423-1.0903576-.1120547-1.3665.3665l-1.536 2.66c-.5421644.9265144-.5421644 2.0734856 0 3z"/><path id="Shape" d="m17.46 13.148c-.1342901-.2287951-.3539916-.3948516-.6107466-.4616191s-.5295186-.0287736-.7582534.1056191c-1.9186271 1.1763561-3.0889486 3.2644579-3.091 5.515 0 .5522847.4477153 1 1 1s1-.4477153 1-1c-.0057849-1.5423253.7892412-2.977158 2.1-3.79.2294715-.1336246.3963737-.353031.4639063-.6098424.0675325-.2568114.0301496-.5299377-.1039063-.7591576z"/></g></g></g></svg>