<?xml version="1.0" encoding="iso-8859-1"?>
<!-- Generator: Adobe Illustrator 19.0.0, SVG Export Plug-In . SVG Version: 6.00 Build 0)  -->
<svg version="1.1" id="Layer_1" xmlns="http://www.w3.org/2000/svg" xmlns:xlink="http://www.w3.org/1999/xlink" x="0px" y="0px"
	 viewBox="0 0 473.658 473.658" style="enable-background:new 0 0 473.658 473.658;" xml:space="preserve">
<circle style="fill:#497336;" cx="236.829" cy="236.829" r="236.829"/>
<g>
	<path style="fill:#FFFFFF;" d="M170.028,264.203c-5.931-22.864-11.862-45.732-17.793-68.599c-0.969-3.721-4.91-5.912-8.59-4.959
		c-22.856,5.935-45.72,11.869-68.577,17.8c-5.976,1.552-6.918,9.772-1.69,12.849c7.285,4.286,14.569,8.571,21.858,12.857
		l-25.728,44.572c-2.584,4.491-2.584,12.101,0.007,16.589l24.936,43.181c0.4-2.367,1.328-4.805,2.737-7.288l41.461-71.516
		c6.84,4.024,13.683,8.044,20.523,12.071c0.359,0.239,0.733,0.438,1.129,0.595c2.876,1.41,5.579,0.628,7.427-1.163
		C169.654,269.689,170.825,267.273,170.028,264.203z"/>
	<path style="fill:#FFFFFF;" d="M217.361,324.25c0.093-14.872-12.03-27.651-26.865-28.204v-0.131h-64.882l-21.364,36.715
		c-1.716,3.018-2.573,5.864-2.621,8.429c-0.086,3.833,1.657,6.967,4.921,8.904c1.885,0.927,3.826,1.601,5.77,1.922
		c0.359,0.06,0.759,0.101,1.133,0.116l4.024,0.094h67.279c0.049,0,0.09,0.007,0.138,0.007c1.402,0,2.805,0,4.207,0
		c0.049,0,0.093-0.007,0.142-0.007h1.249v-0.064C205.151,351.298,217.263,339.133,217.361,324.25z"/>
	<path style="fill:#FFFFFF;" d="M325.854,93.931c-7.333,4.188-14.663,8.38-21.993,12.569l-25.9-44.475
		c-2.614-4.469-9.218-8.253-14.397-8.238L213.7,53.977c1.847,1.526,3.511,3.541,4.966,5.998l41.465,71.52
		c-7.09,4.05-14.181,8.104-21.271,12.154c-0.019,0.011-0.03,0.026-0.049,0.034c-0.037,0.026-0.075,0.056-0.108,0.079
		c-2.876,1.735-3.642,4.514-3.059,7.068c0.269,2.479,1.784,4.779,4.914,5.636c22.789,6.215,45.578,12.427,68.364,18.638
		c3.684,1.006,7.61-1.227,8.616-4.91c6.208-22.785,12.415-45.575,18.623-68.356C337.798,95.839,331.175,90.887,325.854,93.931z"/>
	<path style="fill:#FFFFFF;" d="M207.903,58.932c-3.287-1.978-6.873-2.023-10.175-0.146c-1.739,1.17-3.287,2.528-4.536,4.054
		c-0.228,0.277-0.467,0.606-0.666,0.92l-2.083,3.448l-36.278,63.368l0.06,0.034c-6.698,13.104-2.042,29.711,10.852,37.157
		c12.875,7.434,29.849,3.194,37.718-9.342l0.123,0.071l32.239-56.315l-21.248-36.783C212.144,62.406,210.102,60.252,207.903,58.932z
		"/>
	<path style="fill:#FFFFFF;" d="M393.283,297.5l-82.664,0.236c0.026-7.917,0.052-15.837,0.079-23.761
		c0.03-0.486,0.004-0.965-0.079-1.44c-0.292-2.958-2.143-4.839-4.443-5.609c-2.161-0.976-4.749-0.868-6.993,1.043
		c-0.157,0.116-0.31,0.236-0.456,0.374c-0.011,0.007-0.019,0.011-0.026,0.019c-16.757,16.649-33.514,33.297-50.271,49.942
		c-2.726,2.711-2.621,7.229,0.056,9.917c16.645,16.75,33.29,33.507,49.939,50.257c4.282,4.312,11.922,1.111,11.941-4.933
		c0.03-8.485,0.06-16.967,0.082-25.448l51.461-0.239c5.187-0.037,11.761-3.871,14.33-8.369l24.723-43.305
		C398.709,297.033,396.132,297.463,393.283,297.5z"/>
	<path style="fill:#FFFFFF;" d="M403.514,274.001c-0.131-0.337-0.292-0.714-0.467-1.036l-1.948-3.526l-34.049-58.345
		c-0.022-0.041-0.041-0.079-0.064-0.12c-0.703-1.208-1.414-2.42-2.117-3.631c-0.026-0.041-0.056-0.079-0.079-0.116l-0.497-0.853
		l-0.045,0.026c-7.98-12.445-24.943-16.578-37.781-9.05c-12.834,7.524-17.4,24.221-10.572,37.269l-0.123,0.075l32.707,56.034
		l42.471-0.052c3.478-0.045,6.361-0.737,8.605-1.986c3.351-1.855,5.187-4.944,5.209-8.743
		C404.617,277.86,404.217,275.837,403.514,274.001z"/>
</g>
<g>
</g>
<g>
</g>
<g>
</g>
<g>
</g>
<g>
</g>
<g>
</g>
<g>
</g>
<g>
</g>
<g>
</g>
<g>
</g>
<g>
</g>
<g>
</g>
<g>
</g>
<g>
</g>
<g>
</g>
</svg>
