<svg height="512pt" viewBox="0 -7 512.00003 512" width="512pt" xmlns="http://www.w3.org/2000/svg"><path d="m104.929688 117.253906 54.0625-90.839844c6.28125-10.558593 17.675781-17 29.957031-16.941406l92.117187.445313-93.859375 156.652343zm0 0" fill="#49cb5c"/><path d="m380.304688 167.714844 40.597656-95.753906-29.953125 17.953124-36.105469-63.007812c-6.214844-10.839844-17.777344-17.5-30.269531-17.433594l-130.019531-.109375h17.578124c12.054688.125 23.179688 7.460938 29.378907 17.800781l67.160156 112.066407-31.933594 19.140625zm0 0" fill="#baeb6c"/><path d="m390.949219 89.914062-36.105469-63.007812c-6.214844-10.839844-17.777344-17.5-30.269531-17.433594h-44c12.492187-.066406 24.050781 6.59375 30.265625 17.433594l49.167968 84.621094-22.085937 52.363281 42.382813 3.824219 40.597656-95.753906zm0 0" fill="#96d629"/><path d="m194.554688 9.363281 17.894531.015625c-.105469-.003906-.210938-.015625-.316407-.015625zm0 0" fill="#96d629"/><path d="m448.476562 191.710938 51.625 92.25c5.996094 10.71875 5.878907 23.816406-.316406 34.421874l-46.445312 79.570313-88.703125-159.632813zm0 0" fill="#49cb5c"/><path d="m500.101562 283.964844-51.625-92.25-33.5625 18.65625 41.183594 73.59375c5.996094 10.71875 5.878906 23.8125-.3125 34.417968l-23.902344 40.949219 21.457032 38.621094 46.445312-79.570313c6.195313-10.605468 6.3125-23.699218.316406-34.417968zm0 0" fill="#07b128"/><path d="m267.09375 405.007812 62.609375 83.042969-.570313-34.921875 72.613282.230469c12.488281.039063 24.039062-6.644531 30.226562-17.5l56.316406-97.339844c-6.6875 12.988281-18.046874 18.484375-30.101562 18.683594h-130.613281l-.605469-37.234375zm0 0" fill="#baeb6c"/><path d="m486.511719 341.59375c.617187-.980469 1.21875-1.992188 1.777343-3.074219zm0 0" fill="#96d629"/><path d="m458.1875 357.203125h-24.710938l-45.507812 78.65625c-5.699219 9.996094-15.949219 16.441406-27.289062 17.371094l41.0625.128906c12.492187.039063 24.039062-6.644531 30.226562-17.5l54.539062-94.265625c-6.816406 10.773438-17.273437 15.429688-28.320312 15.609375zm0 0" fill="#96d629"/><path d="m218.246094 453.558594-105.691406.59375c-12.28125.070312-23.683594-6.367188-29.972657-16.917969l-47.179687-79.132813 182.59375-.480468zm0 0" fill="#49cb5c"/><path d="m119.277344 191.625-102.949219 14.664062 30.839844 16.386719-35.308594 63.460938c-6.074219 10.917969-5.808594 24.261719.699219 34.925781l67.035156 111.429688-9.074219-15.058594c-6.117187-10.390625-5.582031-23.707032.074219-34.355469l61.277344-115.386719 32.878906 17.472656zm0 0" fill="#baeb6c"/><path d="m100.25 123.054688 83.28125 49.929687c3.441406 2.0625 8.210938.894531 10.292969-2.578125l63.324219-105.714844 42.902343 71.601563-25.894531 15.523437c-6.085938 3.648438-3.882812 13.265625 3.183594 13.902344l104.828125 9.457031c.230469.023438.453125.03125.679687.03125 2.988282 0 5.71875-1.78125 6.902344-4.574219l41.09375-96.941406c2.769531-6.53125-4.675781-13.007812-10.761719-9.359375l-23.757812 14.242188-32.746094-57.152344c-7.578125-13.230469-21.722656-21.421875-36.910156-21.421875-45.890625 0-91.800781 0-137.683594 0-14.941406 0-28.957031 7.960938-36.601563 20.816406l-18.742187 31.496094c-4.921875 8.277344 7.960937 15.960938 12.894531 7.671875l18.738282-31.5c4.953124-8.324219 14.027343-13.484375 23.710937-13.484375h.132813l26.367187.128906c8.027344 1.132813 15.824219 6.4375 20.4375 14.136719l12.480469 20.832031-63.59375 106.160156-70.433594-42.226562 9.867188-16.585938c4.925781-8.277343-7.957032-15.960937-12.890626-7.671874l-13.691406 23.011718c-2.113281 3.554688-.953125 8.144532 2.589844 10.269532zm143.730469-108.121094 82.492187.070312h.148438c9.867187 0 19.03125 5.304688 23.941406 13.875l36.546875 63.792969c1 1.746094 2.664063 3.019531 4.613281 3.527344 1.949219.507812 4.023438.210937 5.75-.824219l10.570313-6.335938-29.972657 70.707032-76.464843-6.898438 12.585937-7.542968c3.550782-2.128907 4.707032-6.734376 2.578125-10.289063l-67.980469-113.457031c-1.421874-2.375-3.035156-4.585938-4.808593-6.625zm0 0"/><path d="m506.601562 279.714844-52.257812-93.398438c-2.015625-3.605468-6.574219-4.902344-10.1875-2.890625l-17.679688 9.828125c-8.417968 4.679688-1.136718 17.800782 7.289063 13.109375l11.140625-6.195312 48.605469 86.867187c4.75 8.496094 4.65625 19-.25 27.40625l-14.988281 25.683594c-6.140626 7.835938-14.386719 9.785156-20.707032 9.898438h-23.347656l-61.085938-109.945313 24.191407-13.453125c8.417969-4.679688 1.140625-17.796875-7.289063-13.109375l-30.746094 17.09375c-3.617187 2.011719-4.921874 6.578125-2.910156 10.199219l60.679688 109.214844h-84.257813l-.492187-30.316407c-.113282-7.09375-9.546875-10-13.632813-4.195312l-60.609375 86.089843c-1.875 2.664063-1.816406 6.234376.144532 8.832032l63.375 84.078125c4.265624 5.664062 13.605468 2.457031 13.488281-4.636719l-.453125-27.710938 65.851562.210938h.136719c15.265625-.003906 29.4375-8.230469 36.976563-21.460938 22.914062-39.617187 45.574218-79.40625 68.628906-118.910156 7.574218-12.972656 7.722656-29.179687.386718-42.289062zm-105.996093 167.660156c-.027344 0-.058594 0-.085938 0l-73.496093-.230469c-1.988282 0-3.949219.796875-5.363282 2.230469-1.414062 1.433594-2.195312 3.375-2.160156 5.390625l.199219 12.328125-46.21875-61.320312 44.203125-62.792969.238281 14.667969c.066406 4.09375 3.402344 7.378906 7.5 7.378906h132.207031.121094c2.3125-.039063 4.5625-.234375 6.738281-.582032l-39.914062 69c-4.898438 8.597657-14.078125 13.929688-23.96875 13.929688zm0 0"/><path d="m225.863281 352.628906c-1.289062-1.285156-3.4375-2.183594-5.308593-2.183594l-123.195313.324219 39.144531-73.722656 26.65625 14.167969c6.261719 3.332031 13.367188-3.519532 10.265625-9.902344l-46.027343-94.699219c-1.421876-2.929687-4.574219-4.605469-7.804688-4.144531l-104.207031 14.84375c-7.023438 1-8.726563 10.71875-2.460938 14.046875l24.464844 13.003906-32.023437 57.566407c-7.449219 13.390624-7.121094 29.832031.835937 42.871093 22.617187 37.605469 45.207031 75.230469 67.855469 112.820313 8.859375 14.691406 21.757812 25.671875 39.828125 25.558594l38.910156-.21875c9.625-.054688 9.574219-15.003907-.082031-15.003907l-38.910156.222657c-9.757813.085937-18.871094-5.105469-23.855469-13.46875l-13.503907-22.652344c-3.179687-7.46875-2.660156-16.886719 1.550782-24.820313l11.390625-21.445312 123.707031-.328125.21875 82.152344-14.035156.078124c-9.621094.054688-9.570313 15.003907.085937 15.003907l21.511719-.121094c4.132812-.023437 7.46875-3.386719 7.457031-7.523437l-.253906-97.128907c-.007813-1.988281-.804687-3.894531-2.214844-5.296875zm-164.300781 35.105469-42.53125-70.707031c-5.167969-8.472656-5.382812-19.128906-.554688-27.804688l35.738282-64.25c.976562-1.757812 1.210937-3.839844.636718-5.769531-.570312-1.933594-1.890624-3.554687-3.671874-4.5l-10.890626-5.789063 76.007813-10.824218 33.570313 69.070312-12.945313-6.882812c-1.761719-.933594-3.816406-1.128906-5.71875-.546875s-3.496094 1.894531-4.429687 3.652343l-62.023438 116.824219c-1.296875 2.4375-2.359375 4.960938-3.1875 7.527344zm0 0"/></svg>